<?xml version="1.0" encoding="utf-8"?>
<!-- Generator: Adobe Illustrator 21.0.0, SVG Export Plug-In . SVG Version: 6.00 Build 0)  -->
<svg version="1.1" id="Ebene_1"
	xmlns="http://www.w3.org/2000/svg"
	xmlns:xlink="http://www.w3.org/1999/xlink" x="0px" y="0px" viewBox="0 0 200 200" style="enable-background:new 0 0 200 200;" xml:space="preserve">
	<style type="text/css">
	.st0{fill:#006599;}
	.st1{fill:#004C73;}
	.st2{fill:#FFFFFF;}
	.st3{fill:none;stroke:#009245;stroke-width:6;stroke-linecap:round;stroke-linejoin:round;stroke-miterlimit:10;}
	</style>
	<circle class="st0" cx="100" cy="100" r="100"/>
	<g id="Ebene_2">
	</g>
	<g>
		<g>
			<path class="st1" d="M199.88,104.88l-69.02-69.02l-0.62,0.62l-4.14-4.14l-3.38,3.38l-4.56-4.56l-3.87,3.87l1.29,1.29l-6.6,6.6
			l-1.52-1.52l-2.85,2.85l4.44,4.44l-3.54,3.54l4.5,4.5l-0.78,0.78l6.09,6.09l-1.35,1.35l-11.5-11.5l-0.57,0.57l-4.79-4.79
			l-4.54,4.54l-7.8-7.8l-7.83,7.83l-4.48-4.48l-3.33,3.33l4.48,4.48l-1.31,1.31l0.4,0.4l-4.5,4.5l-3.13-3.13l-4.04,4.04l6.35,6.35
			l-2.66,2.66l-1.68,1.68l-6.9-6.9l-6.16,6.16L48.13,89.5l2.52,38.74L47,131.89l12.61,12.61l-21.4,0.24l55.03,55.03
			c2.24,0.15,4.49,0.23,6.76,0.23C153.59,200,197.33,157.84,199.88,104.88z M72,83.9l-0.84-0.84l1.68-1.68l0.84,0.84L72,83.9z"/>
		</g>
	</g>
	<g>
		<path class="st2" d="M144.76,134.73H53.31c-4.92,0-8.92-4-8.92-8.92V76.95c0-4.92,4-8.92,8.92-8.92h2.82V74h-2.82
		c-1.63,0-2.95,1.32-2.95,2.95v48.86c0,1.63,1.32,2.95,2.95,2.95h91.45c1.63,0,2.95-1.32,2.95-2.95V76.95
		c0-1.63-1.32-2.95-2.95-2.95h-32.22v-5.97h32.22c4.92,0,8.92,4,8.92,8.92v48.86C153.68,130.73,149.68,134.73,144.76,134.73z"/>
		<path class="st3" d="M56.13,71.02"/>
		<path class="st2" d="M155.43,138.66h-43.6c0.13,0.37,0.22,0.77,0.22,1.18c0,1.95-1.6,3.55-3.55,3.55H89.57
		c-1.95,0-3.55-1.6-3.55-3.55c0-0.42,0.09-0.81,0.22-1.18h-43.6c-2.39,0-4.34,1.95-4.34,4.34c0,2.39,1.95,4.34,4.34,4.34h112.78
		c2.39,0,4.34-1.95,4.34-4.34C159.76,140.61,157.81,138.66,155.43,138.66z"/>
		<path class="st2" d="M84.81,83.23c-2.75,0-5.41-0.9-7.63-2.59c-2.68-2.04-4.39-5.01-4.84-8.35c-0.45-3.34,0.43-6.65,2.48-9.33
		c2.05-2.68,5.01-4.39,8.35-4.84c6.89-0.92,13.24,3.94,14.17,10.83c0.45,3.34-0.44,6.65-2.48,9.33c-2.05,2.68-5.01,4.39-8.35,4.84
		C85.94,83.19,85.37,83.23,84.81,83.23z M84.84,61c-0.42,0-0.85,0.03-1.28,0.09c-2.55,0.34-4.81,1.65-6.37,3.69
		c-1.56,2.04-2.23,4.57-1.89,7.12c0.7,5.26,5.55,8.96,10.81,8.26c5.26-0.7,8.96-5.55,8.26-10.81C93.73,64.52,89.59,61,84.84,61z"/>
		<path class="st2" d="M109.49,70.53l-0.84-6.29l-4.66,0.62c-0.4-1.33-0.93-2.59-1.57-3.77l3.73-2.87l-3.88-5.03l-3.73,2.87
		c-0.99-0.93-2.08-1.77-3.24-2.48l1.79-4.35l-5.87-2.42l-1.79,4.35c-1.31-0.31-2.67-0.49-4.05-0.53l-0.62-4.66l-6.29,0.84l0.62,4.66
		c-1.33,0.4-2.59,0.93-3.77,1.57l-2.87-3.73l-5.03,3.88l2.87,3.73c-0.93,0.99-1.77,2.08-2.48,3.24l-4.35-1.79l-2.42,5.87l4.35,1.79
		c-0.31,1.31-0.49,2.67-0.53,4.05l-4.66,0.62l0.84,6.29l4.66-0.62c0.4,1.33,0.93,2.59,1.57,3.77l-3.73,2.87l3.88,5.03l3.73-2.87
		c0.99,0.93,2.08,1.77,3.24,2.48l-1.79,4.35l5.87,2.42l1.79-4.35c1.31,0.31,2.67,0.49,4.05,0.53l0.62,4.66l6.29-0.84l-0.62-4.66
		c1.33-0.4,2.59-0.93,3.77-1.57l2.87,3.73l5.03-3.88l-2.87-3.73c0.93-0.99,1.77-2.08,2.48-3.24l4.35,1.79l2.42-5.87l-4.35-1.79
		c0.31-1.31,0.49-2.67,0.53-4.05L109.49,70.53z M85.64,86.16c-7.55,0.4-14.41-4.84-16-12.23c-2.02-9.39,4.82-18.34,14.41-18.85
		c7.55-0.4,14.41,4.84,16,12.23C102.07,76.7,95.23,85.65,85.64,86.16z"/>
		<path class="st2" d="M119.95,54.56c-0.74,0-1.48-0.1-2.21-0.31c-4.23-1.21-6.69-5.65-5.47-9.88c1.22-4.23,5.64-6.69,9.88-5.47
		c4.23,1.21,6.69,5.65,5.47,9.88c-0.59,2.05-1.94,3.75-3.81,4.78C122.61,54.22,121.28,54.56,119.95,54.56z M119.94,40.57
		c-2.61,0-5.01,1.72-5.77,4.34c-0.44,1.54-0.26,3.16,0.52,4.56c0.78,1.4,2.05,2.42,3.59,2.86c1.54,0.44,3.16,0.26,4.56-0.52
		c1.4-0.78,2.42-2.05,2.86-3.59c0.44-1.54,0.26-3.16-0.52-4.56c-0.78-1.4-2.05-2.42-3.59-2.86
		C121.04,40.65,120.48,40.57,119.94,40.57z"/>
		<path class="st2" d="M125.59,61.01l-0.72-2.87c0.79-0.34,1.54-0.76,2.25-1.25l2.06,2.13l2.87-2.77L130,54.12
		c0.51-0.68,0.96-1.41,1.33-2.2l2.84,0.82l1.1-3.84l-2.84-0.82c0.1-0.86,0.12-1.73,0.04-2.57l2.87-0.72l-0.97-3.88l-2.87,0.72
		c-0.34-0.79-0.76-1.54-1.25-2.25l2.13-2.06l-2.77-2.87l-2.13,2.05c-0.68-0.51-1.41-0.96-2.2-1.33l0.82-2.84l-3.84-1.1l-0.82,2.84
		c-0.86-0.1-1.73-0.12-2.57-0.04l-0.72-2.87l-3.88,0.97l0.72,2.87c-0.79,0.34-1.54,0.76-2.25,1.25l-2.06-2.13l-2.87,2.77l2.05,2.13
		c-0.51,0.68-0.96,1.41-1.33,2.2l-2.84-0.82l-1.1,3.84l2.84,0.82c-0.1,0.86-0.12,1.73-0.04,2.57l-2.87,0.72l0.97,3.88l2.87-0.72
		c0.34,0.79,0.76,1.54,1.25,2.25l-2.13,2.06l2.77,2.87l2.13-2.05c0.68,0.51,1.41,0.96,2.2,1.33l-0.82,2.84l3.84,1.1l0.82-2.84
		c0.86,0.1,1.73,0.12,2.57,0.04l0.72,2.87L125.59,61.01 M116.48,55.72c-4.45-1.67-7.08-6.42-6.14-11.08
		c1.2-5.92,7.4-9.36,13.05-7.23c4.45,1.67,7.08,6.42,6.14,11.08C128.33,54.41,122.14,57.85,116.48,55.72z"/>
		<path class="st2" d="M104.16,115c-3.81,0-6.91-3.1-6.91-6.91c0-3.81,3.1-6.91,6.91-6.91s6.91,3.1,6.91,6.91
		C111.07,111.9,107.97,115,104.16,115z M104.16,103.17c-2.71,0-4.92,2.21-4.92,4.92c0,2.71,2.21,4.92,4.92,4.92s4.92-2.21,4.92-4.92
		C109.08,105.37,106.87,103.17,104.16,103.17z"/>
		<path class="st2" d="M117.18,109.78v-3.38h-2.5c-0.12-0.73-0.31-1.43-0.56-2.1l2.17-1.25l-1.69-2.93l-2.17,1.25
		c-0.46-0.56-0.97-1.08-1.54-1.54l1.25-2.17l-2.93-1.69l-1.25,2.17c-0.67-0.26-1.37-0.45-2.1-0.56v-2.5h-3.38v2.5
		c-0.73,0.12-1.43,0.31-2.1,0.56l-1.25-2.17l-2.93,1.69l1.25,2.17c-0.56,0.46-1.08,0.97-1.54,1.54l-2.17-1.25l-1.69,2.93l2.17,1.25
		c-0.26,0.67-0.45,1.37-0.56,2.1h-2.5v3.38h2.5c0.12,0.73,0.31,1.43,0.56,2.1l-2.17,1.25l1.69,2.93l2.17-1.25
		c0.46,0.56,0.97,1.08,1.54,1.54l-1.25,2.17l2.93,1.69l1.25-2.17c0.67,0.26,1.37,0.45,2.1,0.56v2.5h3.38v-2.5
		c0.73-0.12,1.43-0.31,2.1-0.56l1.25,2.17l2.93-1.69l-1.25-2.17c0.56-0.46,1.08-0.97,1.54-1.54l2.17,1.25l1.69-2.93l-2.17-1.25
		c0.26-0.67,0.45-1.37,0.56-2.1H117.18z M103.49,116.34c-4.01-0.32-7.26-3.57-7.58-7.58c-0.41-5.1,3.83-9.34,8.93-8.93
		c4.01,0.32,7.26,3.57,7.58,7.58C112.82,112.51,108.58,116.75,103.49,116.34z"/>
		<path class="st2" d="M47,132.12"/>
	</g>
</svg>
